# xmcd
#
# Track frame offsets:
#       187
#       11042
#       22480
#       35822
#       50800
#       65770
#       76717
#       85585
#       99132
#       109322
#       122272
#       137040
#       151295
#       160877
#       170330
#       187000
#       197562
#       210532
#       226702
#
# Disc length: 3218 seconds
#
# Revision: 3
# Processed by: cddbd v1.5.2PL0 Copyright (c) Steve Scherf et al.
# Submitted via: FreeDbEdit v0.1
#
DISCID=f80c9013
DTITLE=Various Artist - A Country Christmas, Volume 1 (Reader's Digest)
DYEAR=1900
DGENRE=Christmas
TTITLE0=Eddy Arnold - Winter Wonderland
TTITLE1=Brenda Lee - A Marshmallow World
TTITLE2=The Judds - Silver Bells
TTITLE3=Lee Greenwood - Let It Snow, Let It Snow, Let It Snow
TTITLE4=Alabama - Happy Holidays
TTITLE5=Elvis Presley - White Christmas
TTITLE6=Loretta Lynn - Frosty the Snowman
TTITLE7=Ronnie Milsap - It's Christmas
TTITLE8=Burl Ives - A Holly Jolly Christmas
TTITLE9=Steve Wariner - Noel, Noel, The First Noel
TTITLE10=Reba McEntire - I'll Be Home for Christmas
TTITLE11=Lee Greenwood - The Christmas Song, Chestnuts Roasting on an Ope
TTITLE11=n Fire
TTITLE12=Charlie Pride - Christmas in My Home Town
TTITLE13=Floyd Cramer - Up on the House Top/Jingle Bells
TTITLE14=Alabama - A Tennessee Christmas
TTITLE15=Johnny Tillotson - Home for the Holidays
TTITLE16=Barbara Mandrell - Christmas at Our House
TTITLE17=Alabama - Christmas in Dixie
TTITLE18=Jerry Reed - Chistmas Time's A-Coming
EXTD=
EXTT0=
EXTT1=
EXTT2=
EXTT3=
EXTT4=
EXTT5=
EXTT6=
EXTT7=
EXTT8=
EXTT9=
EXTT10=
EXTT11=
EXTT12=
EXTT13=
EXTT14=
EXTT15=
EXTT16=
EXTT17=
EXTT18=
PLAYORDER=
